Coordinates
version=1
nRows=16
nColumns=40
inDegrees=yes

Units are S.I. units (second, meters, Newtons, ...)
Angles are in degrees.

endheader
time	pelvis_tilt	pelvis_list	pelvis_rotation	pelvis_tx	pelvis_ty	pelvis_tz	hip_flexion_r	hip_adduction_r	hip_rotation_r	knee_angle_r	knee_angle_r_beta	ankle_angle_r	subtalar_angle_r	mtp_angle_r	hip_flexion_l	hip_adduction_l	hip_rotation_l	knee_angle_l	knee_angle_l_beta	ankle_angle_l	subtalar_angle_l	mtp_angle_l	lumbar_extension	lumbar_bending	lumbar_rotation	arm_flex_r	arm_add_r	arm_rot_r	elbow_flex_r	pro_sup_r	wrist_flex_r	wrist_dev_r	arm_flex_l	arm_add_l	arm_rot_l	elbow_flex_l	pro_sup_l	wrist_flex_l	wrist_dev_l
     49.36000000	     -4.93422889	     -3.28210328	    -10.91114781	      1.20417766	      0.92696443	      0.50753139	     20.10602619	      2.16175053	     -3.89582484	     21.41506771	     21.41506771	      7.48277926	      0.40479982	     -3.10093310	     -0.67656125	     -7.01496689	    -15.48690584	     15.33248956	     15.33248956	     16.88377545	    -10.24214806	     -0.84927318	     -7.91612695	      5.66887455	      0.04438386	     -9.99693823	    -12.69616883	    -10.93646945	     33.31158308	     45.49952431	      0.00000000	      0.00000000	     38.17995371	    -19.94845926	     -9.45744112	     67.17143473	     47.92477735	      0.00000000	      0.00000000
     49.38028571	     -4.94582879	     -3.36251780	    -10.15842012	      1.20558491	      0.92732538	      0.51176202	     19.63989817	      2.33613053	     -4.42970367	     21.42917806	     21.42917806	      7.95726960	      0.11051584	     -3.12886824	     -0.67672525	     -7.53699788	    -14.97095453	     15.83213328	     15.83213328	     16.74316145	     -9.96794577	     -0.71030087	     -7.92121180	      5.51221373	      0.17760190	     -8.71650619	    -12.91920129	    -10.90295958	     33.76063397	     45.49182674	      0.00000000	      0.00000000	     36.90923327	    -18.86495693	     -9.09085960	     66.64526735	     47.87805562	      0.00000000	      0.00000000
     49.40057143	     -5.09155008	     -3.62262732	     -9.31348430	      1.20662659	      0.92746881	      0.51590889	     19.15332887	      2.72217952	     -5.11432228	     21.14426958	     21.14426958	      8.39366648	     -0.08488957	     -2.91941507	     -0.04992884	     -8.45391156	    -14.43333802	     17.25150895	     17.25150895	     16.99761191	     -9.62829292	     -0.30323159	     -7.76731531	      5.59166496	     -0.01654251	     -7.10644637	    -13.19455878	    -10.70314337	     34.13251752	     45.48756969	      0.00000000	      0.00000000	     35.44360141	    -18.05728148	     -8.77875843	     65.41877735	     47.81768618	      0.00000000	      0.00000000
     49.42085714	     -5.11197459	     -3.82243571	     -8.49026638	      1.20754410	      0.92772727	      0.51993445	     18.56222214	      3.03826231	     -5.75475611	     20.85918862	     20.85918862	      8.78833230	     -0.28875796	     -2.88830846	      0.50610814	     -9.23921766	    -13.69803057	     18.67452308	     18.67452308	     16.98446593	     -9.64837043	     -0.24988766	     -7.77897930	      5.57573840	      0.06484166	     -5.48012304	    -13.46608012	    -10.55320521	     34.50631606	     45.48198815	      0.00000000	      0.00000000	     33.82860744	    -17.04689668	     -8.31583683	     64.36528514	     47.75029307	      0.00000000	      0.00000000
     49.44114286	     -4.92490427	     -3.70152367	     -7.74900714	      1.20855653	      0.92830431	      0.52378623	     17.89480696	      3.00873456	     -6.17069846	     20.76659727	     20.76659727	      9.29060674	     -0.58438659	     -2.98010550	      0.68166500	     -9.55782009	    -13.04280063	     19.66259240	     19.66259240	     16.64504067	     -9.56434807	     -0.32351251	     -8.00517830	      5.16648762	      0.50881405	     -3.93997032	    -13.64639522	    -10.50144516	     34.99172464	     45.47221496	      0.00000000	      0.00000000	     32.01190603	    -15.75098294	     -7.82283585	     63.60734161	     47.68629805	      0.00000000	      0.00000000
     49.46142857	     -5.05069366	     -4.25523239	     -6.78954002	      1.20889296	      0.92804469	      0.52771579	     17.33350837	      3.73041231	     -6.97725901	     20.28277552	     20.28277552	      9.52262585	     -0.78510942	     -2.98589712	      2.29118641	    -10.94428639	    -11.82366534	     22.72383563	     22.72383563	     16.54908574	    -10.31392908	     -0.94493016	     -7.87533191	      5.57476287	      0.17405484	     -1.82458303	    -13.94578153	    -10.28255886	     35.38659902	     45.46473462	      0.00000000	      0.00000000	     30.09916459	    -15.11914409	     -7.16929170	     61.69317793	     47.58989249	      0.00000000	      0.00000000
     49.48171429	     -5.07196338	     -4.43236925	     -5.88582278	      1.20928817	      0.92789657	      0.53143259	     16.86981881	      4.06845298	     -7.48574021	     20.08002113	     20.08002113	      9.87758576	     -1.32024921	     -3.11674291	      3.71037575	    -11.81804509	    -10.69368855	     25.43514262	     25.43514262	     16.05709480	    -10.79230061	     -1.71157432	     -7.74982451	      5.53433928	      0.00036072	      0.40759088	    -14.11486323	     -9.82241672	     35.50225101	     45.45725541	      0.00000000	      0.00000000	     28.06860840	    -14.36976766	     -6.29484576	     59.35052072	     47.46777279	      0.00000000	      0.00000000
     49.50200000	     -4.98410765	     -4.61564940	     -4.98519412	      1.20956552	      0.92772783	      0.53505419	     16.36073849	      4.41601384	     -7.91581008	     19.96325823	     19.96325823	     10.21665120	     -1.97180376	     -3.28728696	      5.30125377	    -12.67322218	     -9.38378574	     28.55996174	     28.55996174	     15.16475584	    -11.60629808	     -2.90622799	     -7.75987530	      5.50950390	     -0.09868454	      2.79134089	    -14.29490889	     -9.20790071	     35.49922857	     45.44857022	      0.00000000	      0.00000000	     26.03485842	    -13.60563309	     -5.23565747	     56.63356116	     47.32484362	      0.00000000	      0.00000000
     49.52228571	     -4.65116630	     -4.85760287	     -4.11094874	      1.20975945	      0.92769372	      0.53865620	     15.68142441	      4.80103559	     -8.39461128	     20.00202044	     20.00202044	     10.59068344	     -2.48255466	     -3.41573222	      6.86296231	    -13.54767913	     -7.94769013	     32.04084884	     32.04084884	     14.12376008	    -12.48018653	     -3.91073295	     -8.14005844	      5.47938160	      0.11013197	      5.00433632	    -14.52778599	     -8.93250722	     35.93047687	     45.43630304	      0.00000000	      0.00000000	     23.95667599	    -12.70150266	     -4.45642019	     54.63683670	     47.21485175	      0.00000000	      0.00000000
     49.54257143	     -4.54037314	     -4.96500770	     -3.20538776	      1.20971576	      0.92718387	      0.54206169	     15.35598426	      5.11674261	     -8.56043661	     20.13892346	     20.13892346	     10.82178839	     -3.70326655	     -3.69412368	      8.83452561	    -14.18410166	     -6.27454919	     35.48382802	     35.48382802	     11.30183503	    -14.41348642	     -8.02217976	     -7.99389701	      5.34848318	      0.15351113	      7.80437341	    -14.84384018	     -6.86301000	     34.66120964	     45.42320095	      0.00000000	      0.00000000	     22.78523331	    -12.07291887	     -1.90405159	     48.76957949	     46.90881211	      0.00000000	      0.00000000
     49.56285714	     -4.28183548	     -5.14842075	     -2.28756405	      1.20951526	      0.92654330	      0.54527595	     15.00018324	      5.41909279	     -9.07128929	     20.51325880	     20.51325880	     11.26091212	     -4.39141267	     -3.80697839	     11.07506915	    -14.87106897	     -4.53980939	     39.69191456	     39.69191456	      9.71995405	    -15.38592775	     -8.76721126	     -8.23241401	      5.31018959	      0.11780187	     10.04093395	    -14.93906682	     -6.82451792	     35.72671552	     45.40030934	      0.00000000	      0.00000000	     20.22114562	    -11.37691542	     -1.29026216	     46.81124813	     46.80546535	      0.00000000	      0.00000000
     49.58314286	     -4.04408616	     -5.19319409	     -1.43521017	      1.20901198	      0.92566343	      0.54832529	     14.89411851	      5.60533383	     -9.25516742	     21.23738515	     21.23738515	     11.71952021	     -5.55948380	     -3.79943788	     13.45605419	    -15.24579130	     -2.72295826	     43.93300896	     43.93300896	      7.76765238	    -16.59706016	     -9.34079095	     -8.43947540	      5.13720989	     -0.18328875	     12.64975628	    -14.84859698	     -6.51590402	     36.76398162	     45.37093024	      0.00000000	      0.00000000	     17.92182674	    -10.93813906	     -0.27064394	     43.37047321	     46.65047103	      0.00000000	      0.00000000
     49.60342857	     -3.75422296	     -5.29276342	     -0.58598118	      1.20841351	      0.92462849	      0.55120066	     14.75832113	      5.85166104	     -9.46798067	     21.98800382	     21.98800382	     12.32728728	     -6.66022008	     -3.44543673	     15.93172601	    -15.56582556	     -0.92188690	     48.30370056	     48.30370056	      6.22470337	    -17.34493200	     -8.45898777	     -8.65517825	      5.02452710	      0.20300327	     14.95734622	    -15.15594089	     -5.76116105	     37.39977843	     45.35025392	      0.00000000	      0.00000000	     16.57208996	    -10.13182515	      1.60633214	     38.23437944	     46.39984358	      0.00000000	      0.00000000
     49.62371429	     -3.48536514	     -5.41699958	      0.24449499	      1.20757233	      0.92320970	      0.55382184	     14.76153175	      6.06049280	     -9.85183780	     22.91265151	     22.91265151	     12.86068835	     -7.58984052	     -3.53252821	     18.47316026	    -15.80724480	      0.79327501	     52.53101047	     52.53101047	      4.58280205	    -17.97631412	     -7.73887482	     -8.94171686	      4.95907995	      0.26649898	     17.33242181	    -15.20754153	     -5.85394810	     38.71188068	     45.32602426	      0.00000000	      0.00000000	     13.99375635	     -9.61283924	      2.14490694	     36.12406936	     46.29292049	      0.00000000	      0.00000000
     49.64400000	     -3.19064316	     -5.34926930	      0.99888933	      1.20647126	      0.92174064	      0.55607757	     14.90404565	      6.07680138	     -9.94750828	     24.14297237	     24.14297237	     13.74420836	     -8.67571618	     -2.73876330	     21.06193654	    -15.49529289	      2.60833680	     56.85427371	     56.85427371	      5.09004329	    -17.96430505	     -1.27072497	     -9.24860143	      4.72353289	      0.58906023	     19.65343699	    -15.45670287	     -5.59089335	     40.24222492	     45.30485526	      0.00000000	      0.00000000	     12.50735636	     -8.98899496	      3.98402770	     31.26262478	     46.02183161	      0.00000000	      0.00000000
     49.66428571	     -2.97504654	     -5.36936543	      1.75582401	      1.20524566	      0.91990444	      0.55820362	     15.12981292	      6.16734609	    -10.17111494	     25.31634666	     25.31634666	     14.31250827	     -9.80060605	     -2.72647682	     23.45883713	    -15.39453373	      3.95965395	     60.32174553	     60.32174553	      4.00464752	    -18.45672999	      0.27976936	     -9.49789926	      4.60695032	      0.50746030	     22.21937796	    -15.41701223	     -5.77946587	     41.88958171	     45.27551522	      0.00000000	      0.00000000	      9.82357257	     -8.68839238	      4.46602593	     29.25892501	     45.90923853	      0.00000000	      0.00000000
